# xmcd
#
# Track frame offsets:
#	150
#	14028
#	29151
#	47100
#	58536
#	74178
#	92053
#	103429
#	118958
#	132696
#
# Disc length: 1952 seconds
#
# Revision: 1
# Processed by: cddbd v1.5.2PL0 Copyright (c) Steve Scherf et al.
# Submitted via: audiograbber 1.83.01
#
DISCID=a9079e0a
DTITLE=Billy Joe Shaver - Long In The Tooth
DYEAR=2014
DGENRE=Country
TTITLE0=Hard To Be An Outlaw
TTITLE1=Long In The Tooth
TTITLE2=The Git Go
TTITLE3=Sunbeam Special
TTITLE4=I'll Love You As Much As I Can
TTITLE5=Last Call For Alcohol
TTITLE6=Checkers and Chess
TTITLE7=American Me
TTITLE8=I'm In Love
TTITLE9=Music City USA
EXTD=
EXTT0=
EXTT1=
EXTT2=
EXTT3=
EXTT4=
EXTT5=
EXTT6=
EXTT7=
EXTT8=
EXTT9=
PLAYORDER=
